<?xml version="1.0" standalone="no"?>
<!DOCTYPE svg PUBLIC "-//W3C//DTD SVG 20010904//EN"
 "http://www.w3.org/TR/2001/REC-SVG-20010904/DTD/svg10.dtd">
<svg version="1.0" xmlns="http://www.w3.org/2000/svg"
 width="1000.000000pt" height="750.000000pt" viewBox="0 0 1000.000000 750.000000"
 preserveAspectRatio="xMidYMid meet">

<g transform="translate(0.000000,750.000000) scale(0.100000,-0.100000)"
fill="#000000" stroke="none">
<path d="M4900 6605 l0 -65 111 0 c706 0 1348 -465 1582 -1146 68 -196 82
-291 82 -549 -1 -217 -2 -237 -29 -349 -53 -226 -128 -404 -245 -578 -317
-474 -844 -758 -1407 -758 l-94 0 0 -59 0 -59 48 -4 c82 -7 295 10 403 32 763
154 1336 765 1445 1540 22 158 15 431 -16 584 -160 802 -810 1389 -1625 1466
-60 5 -143 10 -182 10 l-73 0 0 -65z"/>
<path d="M5231 5758 c-142 -70 -193 -320 -97 -480 107 -178 304 -163 395 31
23 49 26 69 26 161 0 86 -4 113 -21 151 -64 137 -188 194 -303 137z m149 -104
c52 -44 74 -98 74 -184 0 -59 -5 -85 -23 -119 -52 -101 -117 -120 -180 -53
-20 21 -42 57 -49 79 -54 180 68 369 178 277z"/>
<path d="M5713 5319 c-154 -76 -201 -332 -94 -501 88 -138 254 -144 353 -13
47 63 70 136 69 228 -1 218 -169 365 -328 286z m151 -114 c71 -66 89 -209 38
-305 -36 -71 -84 -98 -135 -77 -117 49 -136 285 -31 382 37 34 91 34 128 0z"/>
<path d="M4950 5120 l-45 -5 -3 -50 -3 -50 88 0 c74 0 96 -4 136 -25 60 -30
104 -78 147 -159 43 -80 142 -180 231 -231 122 -72 175 -143 186 -255 9 -85
-19 -158 -86 -226 -98 -98 -198 -114 -350 -54 -118 46 -159 54 -263 55 l-88 0
0 -54 0 -55 93 0 c97 1 97 1 292 -71 49 -18 75 -21 140 -18 149 8 275 92 339
228 29 60 31 73 31 170 0 93 -3 112 -27 162 -36 78 -106 150 -201 206 -91 54
-155 120 -212 217 -88 149 -244 233 -405 215z"/>
<path d="M5265 2147 c-283 -75 -427 -396 -297 -665 125 -258 514 -297 672 -67
l32 47 -23 24 -23 24 -40 -39 c-56 -53 -96 -71 -175 -78 -96 -8 -160 15 -226
81 -60 59 -84 117 -92 221 -13 170 54 313 171 366 76 34 103 27 176 -46 72
-73 111 -92 156 -75 35 14 44 26 44 65 0 85 -92 143 -236 150 -55 3 -108 0
-139 -8z"/>
<path d="M6069 2142 c-111 -37 -226 -122 -244 -179 -16 -56 30 -93 115 -93
l50 0 0 43 c1 61 16 120 36 134 24 18 117 16 162 -2 51 -22 110 -82 122 -125
5 -19 10 -61 10 -92 l0 -56 -172 -58 c-186 -61 -240 -84 -276 -118 -74 -67
-68 -180 15 -258 75 -72 224 -96 311 -50 24 13 60 38 81 57 21 19 41 35 44 35
4 0 11 -18 17 -40 22 -82 60 -93 178 -53 82 28 87 31 90 60 3 30 1 32 -48 42
-28 6 -57 11 -64 11 -23 0 -26 35 -26 285 0 134 -5 256 -10 277 -40 141 -236
231 -391 180z m251 -570 c0 -105 -1 -109 -27 -134 -92 -86 -218 -80 -281 13
-18 26 -23 43 -19 73 8 62 37 81 177 120 69 19 131 35 138 35 9 1 12 -27 12
-107z"/>
<path d="M6845 2120 c-129 -36 -130 -37 -133 -68 -3 -27 0 -32 25 -38 99 -22
101 -23 106 -57 12 -71 16 -251 9 -412 l-7 -170 -63 -14 c-62 -14 -63 -15 -60
-45 l3 -31 233 -3 232 -2 0 34 c0 34 0 34 -63 45 -35 6 -73 11 -84 11 -27 0
-31 22 -38 270 l-7 195 37 60 c20 33 48 72 63 88 l28 27 39 -21 c52 -27 125
-22 160 11 31 29 35 98 7 123 -76 69 -206 22 -287 -103 l-40 -62 -3 90 c-2 56
-7 94 -15 99 -8 6 -59 -4 -142 -27z"/>
<path d="M7745 2147 c-115 -39 -203 -114 -254 -220 -91 -186 -58 -434 75 -557
187 -173 491 -136 611 74 10 18 8 25 -9 43 l-21 23 -38 -35 c-68 -61 -114 -79
-204 -79 -70 -1 -87 3 -133 29 -30 16 -65 43 -79 60 -39 45 -71 123 -79 188
l-7 57 292 0 291 0 0 48 c-1 167 -74 299 -195 353 -61 28 -190 35 -250 16z
m186 -90 c52 -28 94 -101 104 -184 l7 -53 -217 0 -217 0 7 38 c32 173 183 269
316 199z"/>
</g>
</svg>
